<svg width="1009" height="300" viewBox="0 0 1009 300" fill="none" xmlns="http://www.w3.org/2000/svg">
<path d="M53.9795 0H0V292.493H53.9795V114.145H112.601V63.7634H53.9795V0Z" fill="#EFEFEF"/>
<path d="M741.47 63.7634H687.49V292.517H741.47V63.7634Z" fill="#EFEFEF"/>
<path d="M951.117 292.493H1008.62L916.702 157.483L999.652 63.7634H934.59L853.147 160.847V0H799.168V292.493H853.147V229.314L885.18 193.094L951.117 292.493Z" fill="#EFEFEF"/>
<path d="M537.194 58.4742C484.308 58.4742 460.296 90.0634 460.296 90.0634L458.06 63.7634H411.712V292.517H465.691V144.808C465.691 144.808 479.593 111.05 525.358 111.05C549.71 111.05 578.778 119.824 578.778 162.699V292.517H632.612V157.678C632.636 75.6825 576.518 58.4742 537.194 58.4742Z" fill="#EFEFEF"/>
<path d="M249.263 56.2561C182.159 56.2561 127.742 110.83 127.742 178.128C127.742 245.426 182.159 300 249.263 300C316.367 300 370.784 245.426 370.784 178.128C370.784 110.83 316.367 56.2561 249.263 56.2561ZM249.263 248.887C210.303 248.887 178.708 217.2 178.708 178.128C178.708 139.056 210.303 107.369 249.263 107.369C288.222 107.369 319.818 139.056 319.818 178.128C319.818 217.2 288.222 248.887 249.263 248.887Z" fill="#EFEFEF"/>
</svg>
