<svg width="341" height="341" viewBox="0 0 341 341" fill="none" xmlns="http://www.w3.org/2000/svg">
<path d="M254.031 113.345L247.436 106.419L240.485 99.1206L197.067 140.472L174.782 84.8118L165.901 88.3678L156.545 92.1101L178.821 147.771H118.876V122.582H99.2246V147.771V167.414V241.439H118.876V167.414H179.913L161.413 225.581L170.532 228.476L180.133 231.533L199.09 171.901L254.04 201.823L258.62 193.415L263.438 184.567L209.869 155.408L254.031 113.345Z" fill="#EFEFEF"/>
<path d="M316.582 24.4186C292.859 0.694692 255.257 -6.02794 210.697 5.50383C167.067 16.7901 121.719 44.3241 83.026 83.0173C44.3243 121.719 16.7903 167.067 5.5041 210.697C-6.02766 255.257 0.694968 292.867 24.4104 316.591C40.5566 332.737 63.1375 341 89.9603 341C102.55 341 116.072 339.18 130.305 335.497C173.934 324.211 219.282 296.677 257.975 257.984C296.669 219.29 324.203 173.942 335.489 130.313C347.021 85.7521 340.298 48.1426 316.574 24.4186H316.582ZM325.862 127.815C315.016 169.751 288.405 213.482 250.939 250.948C213.474 288.413 169.751 315.016 127.807 325.87C86.7938 336.479 52.571 330.688 31.4464 309.555C10.3132 288.422 4.52196 254.199 15.1308 213.194C25.9853 171.258 52.5879 127.527 90.0535 90.0617C127.519 52.5961 171.25 25.985 213.186 15.139C226.589 11.6677 239.272 9.95736 251.007 9.95736C275.171 9.95736 295.331 17.2303 309.547 31.4545C330.68 52.5877 336.471 86.8104 325.862 127.815Z" fill="#EFEFEF"/>
</svg>
